<?xml version="1.0" encoding="UTF-8"?>
<svg id="Layer_1" xmlns="http://www.w3.org/2000/svg" version="1.1" viewBox="0 0 1920 1080">
  <!-- Generator: Adobe Illustrator 30.0.0, SVG Export Plug-In . SVG Version: 2.1.1 Build 123)  -->
  <defs>
    <style>
      .st0 {
        fill: #e41e2b;
      }
    </style>
  </defs>
  <polygon class="st0" points="997.38 400.92 943.59 400.92 913.25 450.11 967.01 450.11 997.38 400.92"/>
  <path class="st0" d="M840.51,820.99c-42.86-30.13-95.07-43.42-142.49-41.52-47.94,1.91-69.47,37.72-69.47,37.72-21.66-37.72-64.44-60.88-130.53-60.32-106.74,1.26-212.68,50.56-296.57,50.56s-139.2-50.54-137.27-140.38c3.39-157.46,136.42-299.39,235.88-363.3,57.15-36.72,105.03-47.61,136.36-44.13,22.83,2.54,50.34,28.92,33,67.79-25.42,56.99-60.59,52.21-59.33,24.99.73-17.67,12.51-28.8,21.32-34.89,5.65-3.89,15.56-5.01,20.74-5.11,5-4.27,8.86-35.41-32.11-25.13-40.96,10.28-90.23,50.52-137.25,102.37-47.02,51.85-120.13,150.2-138.21,253.29-8.39,47.85-2.75,134.99,110.52,133.99,96.03-.85,237.83-64.12,368.03-62.99,50.56.44,94.55,14.04,128.84,35.24,33.8,20.87,74.23,51.14,88.53,71.8M871.27,535.44h19.7s-98.65,142.66-154.43,136.21c-31.14-3.6-21.92-42.05-21.92-42.05,0,0-43.8,51.21-83.79,40.99-36.43-9.32-12.97-69.91-12.97-69.91-4.14,1.68-82.93,90.59-138.27,69.27-57.92-22.33-27.93-96.74-16.88-119.09,9.32-18.86,19.63-37.25,19.63-37.25,0,0-8.9,2.54-14.4,3.82-5.51,1.27-13.91,2.89-13.91,2.89,0,0-27.4,44.55-44.14,66.8-16.74,22.24-87.91,98.72-129.86,83.47-41.93-15.25-31.61-73.88-8.04-120.54,38.2-75.62,128.87-168.55,183.45-154.64,55.17,14.05,9.54,103.59,9.54,103.59,0,0,10.98,1.4,37.28-16.53,37.92-25.84,87.79-95.39,141.94-87.27,25.41,3.82,49.09,29.91,16.73,79.44-10.38,15.89-27.75,30.13-41.1,16.1-8.26-8.68-1.06-24.65,7.63-35.59,12.29-15.46,29.24-13.35,29.24-13.35,0,0,8.9-20.54-13.76-20.13-18.43.34-65.02,43.28-91.3,86.64-24.16,39.82-60.65,107.67-23.94,122.44,33.68,13.56,97.66-62.49,127.32-102.32,29.66-39.82,97.11-130.18,153.79-133.88,19.49-1.27,31.14,16.52,31.14,16.52l6.57-10.38h56.56s-106.66,178.22-115.03,191.71c-6.56,10.6-15.25,34.32,8.9,20.97,24.16-13.35,74.36-77.95,74.36-77.95M431.99,517.37c-.99-.35-15.25-4.45-29.17-13.35-13.9-8.9-20.33-22.11-20.83-23.02-.5-.92-1.06-.21-1.62.56-.56.78-3.53,4.59-23.73,34.25-20.19,29.66-50.13,90.37-22.07,100.76,17.95,6.63,48.09-24.89,64.41-45.76,15.14-19.37,33.15-49.15,33.93-50.92.78-1.76.06-2.19-.92-2.54M454.37,422.64c-14.83-11.22-52.64,15.05-52.84,41.88-.2,27.52,34.16,35.36,38.58,35.56,0,0,3.88,1.04,5.42-2.21.96-2.03,5.63-10.65,10.85-24.31,5.23-13.67,11.83-40.44-2-50.92M742.9,571.03c22.87-31.35,85.93-141.23,85.93-141.23,0,0-1.04-7.72-8.4-8.04-8.74-.39-23.18,2.54-52.2,38.76-29.02,36.22-51.33,65.11-67.7,95.04-17.91,32.73-25.74,55.83-15.46,62.07,2.9,1.77,7.28,1.99,10.8,1.12,6.75-1.67,15.49-8.39,27.54-22.3,5.63-6.51,12.02-15.19,19.49-25.42M1791.05,312.58c-39.74,25.58-94.85,48.72-147.73,43.63-13.37,13.89-27.71,29.88-42.1,47.39,91.79,18.11,172.09-38.76,214.83-87.21,26.66-30.22,39.82-57.19,39.82-57.19,0,0-25.46,28.05-64.83,53.38M1633.73,729.55c-7.63,12.22-16.23,35.52,8.9,20.97,30.61-17.71,74.22-83.88,74.22-83.88h19.7s-25.99,41.11-59.87,78.66c-31.03,34.39-68.87,65.65-95.53,62.56-31.14-3.6-21.41-44.49-21.41-44.49,0,0-44.7,47.46-75.41,44.06-41.6-4.59-28.95-56.06-28.95-56.06,0,0-47.02,57.91-79.09,56.06-50.31-2.88-37.71-64.26-23.72-107.19,7.5-23.01,14.43-41.16,14.43-41.16,0,0-5,1.32-15.7,2.89-5.59.82-15.81,1.36-15.81,1.36,0,0-20.89,36.98-37.62,59.23-16.74,22.24-87.94,98.78-129.86,83.47-38.7-14.13-25.96-73.47-3.4-120.62,32.89-68.71,125.41-167.49,178.8-154.56,55.33,13.41,1.29,114.42,1.29,114.42,0,0,.05.38.6.59,1.1.44,3.97.72,10.66-.56,10.63-2.02,20.24-6.06,20.24-6.06,0,0,55.59-116.53,117.03-192.79,61.44-76.27,183.98-207.56,232.18-175.82,11.79,7.76,6.41,34.68-9.42,67.34-7,2.21-14.26,4.16-21.73,5.71,10.6-19.25,17.63-35.47,19.7-46.79,7.2-39.4-84.73,43.64-150.41,133.04-65.66,89.39-105.06,170.31-105.06,170.31,0,0,13.23-7.49,33.89-24.15,21.55-17.38,51.22-44.63,83.46-77.96,21.66-22.38,47.14-50.54,71-82,7.11-.36,14.09-1.07,20.9-2.16-26.6,35.84-54.59,68.55-78.33,92.64-26.13,26.49-54.53,55.06-79.24,75.83-39.21,33-69.47,51.69-69.47,51.69,0,0-57.58,115.82-26.27,123.28,18.36,4.39,54.66-51.54,54.66-51.54,0,0,47.3-72.31,75.84-104.79,38.93-44.33,72.44-69.89,105.91-70.46,19.52-.34,31.07,20.48,31.07,20.48l9.19-14.2h56.55s-105.5,179.16-113.91,192.63M1315.79,659.03c-.99-.35-13.24-5.96-25.99-16.58-12.68-10.57-19.11-22.75-19.6-23.68-.5-.92-1.06-.21-1.63.56-.56.78-2.86,2.78-23.06,32.44-20.19,29.66-51.08,90.81-23.01,101.19,17.95,6.64,47.82-24.77,64.14-45.64,15.14-19.37,29.3-44.01,30.07-45.77.78-1.76.07-2.19-.92-2.54M1344.34,609c5.23-13.66,11.83-40.44-2.01-50.92-14.82-11.23-52.64,15.04-52.84,41.87-.2,27.52,26.64,39.94,33.13,41.69,3.67.98,4.94.85,6.71-2.12,1.16-1.93,9.79-16.87,15.01-30.53M1669.04,571.17c1.16-2.02,1.69-3.81,1.69-3.81,0,0-1.05-7.72-8.4-8.04-8.74-.4-20.69,1.26-51.9,35.87-31.09,34.46-50.01,64.4-66.38,94.33-17.9,32.73-25.1,57.09-14.82,63.34,2.89,1.76,7.27,1.97,10.8,1.11,7-1.7,14.85-8.17,26.9-22.08,5.63-6.5,11.88-15.75,19.34-25.98,20.56-28.17,72.46-116.87,82.76-134.73M1791.05,312.58c-39.74,25.58-94.85,48.72-147.73,43.63-13.37,13.89-27.71,29.88-42.1,47.39,91.79,18.11,172.09-38.76,214.83-87.21,26.66-30.22,39.82-57.19,39.82-57.19,0,0-25.46,28.05-64.83,53.38M1533.16,379.15c-43.43-22.23-75.12-49.41-108.16-66.36-31.53-16.16-51.9-22.88-77.32-19.49-4.22.56-10.52,2.61-10.52,2.61,0,0,13.16,44.75-38.98,120.04-52.82,76.26-100.78,75.87-114.39,54.8-14.28-22.11,4.1-67.22,34.89-107.33,32.21-41.97,88.83-76.83,88.83-76.83,0,0-18.08-11.01-62.43,14.12-43.19,24.48-117.77,82.76-186.69,181.05-68.92,98.29-82.69,152.38-92.65,194.96-9.96,42.58-.85,88.13,46.39,88.13s102.11-72.03,117.58-97.09c28.78-46.63,47.56-118.13,8.36-108.28-19.33,4.86-34.96,26.29-44.8,46.86-10.12,21.15-14.2,41.38-14.2,41.38,0,0-16.31,5.82-38.23,22.24-21.93,16.41-36.23,32.09-36.23,32.09,0,0,.11-34,27.23-89.07,27.12-55.07,76.89-80.29,105.07-82.62,25.42-2.1,58.46,19.49,30.51,99.14-27.96,79.65-110.58,176.25-197.43,177.52-80.12,1.17-132.65-101.12-21.18-279.62,123.28-197.43,268.18-258.01,315.21-264.8,47.02-6.77,62.27,13.99,62.27,13.99,0,0,39.41-18.22,89.39-14.83,57.42,3.89,101.87,44.51,160.43,73.01-15.31,14.85-29.86,30.07-42.94,44.4M1319.3,301.78s-33.6,13.38-72.63,56.44c-39.19,43.21-61.77,91.53-44.94,104.35,6.44,4.9,21.33,5.72,48.45-18.64,21.14-18.99,42.64-43.85,57.22-79.44,17.49-42.67,11.91-62.2,11.9-62.7"/>
  <path class="st0" d="M1763.38,744.22c6.15,3.5,11,8.24,14.54,14.26,3.53,6.01,5.29,12.54,5.29,19.61s-1.76,13.74-5.29,19.7c-3.54,5.96-8.38,10.69-14.54,14.17-6.15,3.48-13.02,5.22-20.56,5.22s-14.38-1.74-20.55-5.22c-6.15-3.49-11.01-8.21-14.54-14.17-3.53-5.96-5.29-12.54-5.29-19.7s1.76-13.61,5.29-19.61c3.53-6.02,8.39-10.76,14.54-14.26,6.17-3.49,13.01-5.22,20.55-5.22s14.41,1.74,20.56,5.22M1759.37,805.53c4.81-2.73,8.57-6.46,11.24-11.24,2.67-4.77,4.01-10.16,4.01-16.19s-1.34-11.27-4.01-16.04c-2.67-4.77-6.45-8.53-11.32-11.24-4.87-2.71-10.37-4.08-16.48-4.08s-11.59,1.37-16.46,4.08c-4.87,2.71-8.65,6.47-11.32,11.24-2.68,4.77-4.01,10.13-4.01,16.04s1.33,11.42,4.01,16.19c2.67,4.78,6.43,8.52,11.24,11.24,4.83,2.73,10.34,4.08,16.54,4.08s11.72-1.36,16.55-4.08M1758.02,777.45c-1.15,1.87-2.77,3.28-4.88,4.21l9.32,13.75h-10.31l-8.31-12.88h-6.87v12.88h-9.03v-35.36h20.49c3.43,0,6.17,1.06,8.24,3.22,2.04,2.14,3.08,4.78,3.08,7.95,0,2.29-.58,4.36-1.72,6.23M1736.96,774.65h9.73c1.17,0,2.07-.31,2.73-.92.67-.61,1.01-1.47,1.01-2.51s-.34-1.9-1.01-2.51c-.66-.63-1.56-.93-2.73-.93h-9.73v6.87Z"/>
</svg>